<?xml version="1.0" standalone="no"?>
<!DOCTYPE svg PUBLIC "-//W3C//DTD SVG 20010904//EN"
 "http://www.w3.org/TR/2001/REC-SVG-20010904/DTD/svg10.dtd">
<svg version="1.0" xmlns="http://www.w3.org/2000/svg"
 width="300.000000pt" height="169.000000pt" viewBox="0 0 300.000000 169.000000"
 preserveAspectRatio="xMidYMid meet">
<metadata>
Created by potrace 1.10, written by Peter Selinger 2001-2011
</metadata>
<g transform="translate(0.000000,169.000000) scale(0.100000,-0.100000)"
fill="#000000" stroke="none">
<path d="M1599 1448 c-8 -24 -13 -47 -11 -52 2 -5 -8 -25 -21 -45 -41 -63 -87
-142 -87 -150 0 -12 -35 -41 -50 -41 -10 0 -10 3 1 18 7 9 -1 3 -17 -14 -17
-17 -35 -33 -40 -35 -5 -2 -20 -21 -33 -42 -21 -34 -22 -40 -9 -55 8 -9 18
-25 21 -34 4 -10 11 -18 17 -18 15 0 12 16 -5 30 -25 20 -18 47 13 53 18 4 43
25 72 61 45 56 60 62 60 22 0 -17 -9 -27 -29 -36 -16 -6 -40 -23 -52 -36 l-24
-25 30 15 c35 18 59 21 50 5 -4 -6 2 -5 13 2 25 15 47 85 33 102 -6 9 -4 20 9
37 22 28 26 20 8 -13 -10 -20 -10 -21 5 -8 21 17 55 91 67 147 5 22 12 48 16
57 5 14 2 16 -12 11 -18 -6 -18 -6 -2 11 39 42 78 -34 53 -105 -16 -45 -30
-130 -21 -130 3 0 21 9 41 20 19 11 35 16 35 12 0 -4 17 12 39 35 29 33 37 49
33 68 -3 20 -1 24 11 20 15 -6 27 -47 27 -92 0 -13 4 -21 10 -18 19 12 89 -75
89 -111 0 -11 12 -53 27 -94 24 -68 26 -85 21 -175 -5 -113 -27 -184 -83 -265
-40 -58 -31 -66 17 -16 38 40 85 145 95 211 9 63 10 198 0 213 -4 7 -5 12 -2
12 3 0 -3 23 -14 51 -22 55 -63 118 -118 184 -19 22 -8 12 25 -22 32 -34 71
-86 86 -117 15 -31 29 -56 31 -56 21 0 -56 163 -90 191 -9 7 -34 39 -55 71
-22 32 -46 58 -54 58 -23 0 -45 -12 -45 -24 0 -18 -40 -48 -56 -42 -8 3 -14
10 -14 17 0 6 7 8 16 5 14 -5 15 -1 9 31 -8 45 -13 55 -25 48 -4 -2 -10 7 -13
20 -2 14 0 28 5 32 13 7 27 -13 35 -50 8 -38 23 -44 23 -9 0 41 7 44 54 20 57
-29 113 -72 164 -127 24 -25 39 -36 33 -24 -32 64 -208 185 -318 218 -72 22
-78 20 -94 -27z m58 16 c1 -5 -8 -14 -22 -21 -28 -13 -30 -11 -13 17 13 20 29
22 35 4z m-72 -181 c-20 -47 -25 -52 -25 -23 0 20 25 60 37 60 2 0 -4 -17 -12
-37z"/>
<path d="M1798 1444 c72 -35 111 -62 172 -122 44 -42 80 -74 80 -70 0 3 -38
42 -85 85 -78 74 -206 153 -246 153 -8 0 28 -21 79 -46z"/>
<path d="M1446 1413 c-2 -2 -23 -6 -47 -9 -41 -4 -189 -66 -189 -79 0 -3 21 5
48 19 66 33 166 56 247 56 37 0 66 2 64 4 -5 5 -118 13 -123 9z"/>
<path d="M1391 1375 c-95 -21 -181 -66 -242 -126 -61 -61 -92 -98 -71 -85 10
6 11 4 4 -10 -26 -50 -62 -155 -62 -177 1 -7 9 8 19 33 43 112 151 234 249
284 58 30 159 56 215 56 30 0 37 4 37 20 0 17 -6 20 -42 19 -24 0 -72 -7 -107
-14z"/>
<path d="M1335 1251 c-54 -13 -127 -51 -172 -87 -61 -50 -45 -56 23 -9 31 22
97 54 148 71 85 31 85 45 1 25z"/>
<path d="M1766 1181 c-9 -10 -19 -36 -21 -57 -2 -22 -15 -59 -28 -84 -14 -25
-28 -56 -32 -70 -6 -24 -6 -24 19 5 14 17 25 35 26 40 0 6 16 43 35 84 22 46
32 78 27 87 -7 12 -11 12 -26 -5z"/>
<path d="M1651 1115 c1 -46 1 -48 11 -22 7 20 7 35 0 50 -9 18 -11 14 -11 -28z"/>
<path d="M1555 1063 c-1 -21 -4 -49 -8 -63 l-8 -25 15 25 c16 26 22 100 9 100
-5 0 -8 -17 -8 -37z"/>
<path d="M1511 1039 c-19 -43 -8 -57 17 -22 17 24 19 33 9 41 -9 8 -16 4 -26
-19z"/>
<path d="M1667 1059 c-13 -8 -17 -22 -16 -57 l1 -47 9 44 c5 25 14 48 21 52
19 12 5 19 -15 8z"/>
<path d="M1755 1018 c-4 -21 -5 -59 -3 -85 3 -26 -2 -84 -9 -128 -8 -44 -11
-90 -8 -102 3 -12 -4 -65 -16 -118 -17 -80 -28 -107 -66 -162 -36 -50 -41 -63
-24 -54 12 7 25 19 28 27 4 11 8 12 13 4 12 -20 50 57 71 145 18 77 23 141 33
380 4 102 -7 156 -19 93z"/>
<path d="M1397 991 c-13 -37 -23 -50 -42 -55 -14 -4 -30 -4 -36 -1 -18 12
-119 13 -119 2 0 -5 -8 -16 -17 -24 -17 -14 -17 -14 0 -9 10 3 23 6 28 6 6 0
7 4 4 10 -3 6 1 7 10 3 9 -3 13 -9 8 -12 -4 -3 -9 -16 -11 -29 -3 -23 -3 -23
16 -5 10 10 19 23 18 28 -1 6 6 10 14 10 8 0 16 -6 16 -12 1 -7 2 -20 3 -28 0
-8 5 -15 10 -15 4 0 6 11 3 25 -7 37 10 31 58 -22 l42 -48 -7 34 c-5 23 -4 31
4 27 15 -10 14 -63 -1 -69 -7 -2 -21 1 -30 7 -13 8 -23 7 -38 -2 -27 -17 -50
-15 -50 4 0 13 -7 15 -40 9 -28 -5 -40 -3 -40 5 0 10 -3 10 -15 0 -11 -9 -15
-9 -15 -1 0 7 -4 9 -10 6 -5 -3 -10 1 -10 9 0 16 -26 21 -55 10 -31 -12 43
-46 104 -48 56 -1 79 -19 41 -31 -33 -10 -96 4 -136 31 -41 28 -57 24 -28 -7
35 -38 77 -52 162 -50 23 0 42 -2 42 -4 0 -3 -15 -14 -32 -25 -43 -26 -32 -25
29 1 l48 22 -38 11 c-46 14 -38 26 15 26 27 0 37 4 32 11 -5 8 3 10 27 5 19
-4 50 -9 69 -12 l35 -5 -25 20 c-21 18 -23 22 -10 31 12 8 13 13 3 30 -17 26
-16 50 1 50 16 0 15 16 -7 87 l-13 42 -17 -48z m-13 -80 c3 -4 0 -16 -7 -25
-12 -17 -14 -17 -27 -1 -12 14 -12 18 1 26 18 11 26 11 33 0z"/>
<path d="M1289 1004 c-5 -15 -7 -30 -3 -33 7 -7 34 28 34 46 0 23 -20 14 -31
-13z"/>
<path d="M1895 945 c25 -115 21 -217 -11 -313 -18 -54 -18 -57 1 -42 19 16 43
100 48 169 5 58 -14 169 -33 198 -9 15 -10 13 -5 -12z"/>
<path d="M1506 931 c-11 -12 -25 -21 -33 -21 -8 0 -11 -5 -7 -11 3 -6 18 -9
33 -6 16 3 33 -1 44 -10 16 -15 17 -14 17 4 0 12 -8 31 -18 43 l-17 22 -19
-21z"/>
<path d="M1585 934 c-9 -9 -14 -18 -12 -20 5 -6 57 20 57 29 0 13 -28 7 -45
-9z"/>
<path d="M1699 893 c-15 -69 -29 -90 -29 -43 0 18 -7 42 -16 52 -16 17 -18 17
-29 1 -11 -14 -9 -23 11 -52 30 -44 30 -46 -2 -84 -23 -27 -24 -31 -9 -40 11
-6 15 -17 11 -30 -3 -12 -8 -51 -12 -87 -3 -36 -10 -92 -14 -125 l-7 -60 -2
72 c0 39 -4 74 -8 76 -7 4 -9 -84 -3 -168 l2 -30 13 30 c7 17 25 107 39 200
31 190 34 207 45 201 9 -6 51 78 51 101 0 15 -2 15 -13 -2 -13 -16 -14 -15 -9
13 7 54 -6 35 -19 -25z"/>
<path d="M1484 846 c-25 -21 -26 -24 -13 -51 8 -15 25 -35 39 -44 l25 -15 -22
25 c-27 29 -28 42 -9 58 11 9 15 8 21 -6 5 -10 7 -23 6 -30 -1 -7 8 -17 19
-23 11 -6 20 -16 19 -23 -4 -31 2 -58 11 -52 6 3 10 31 10 61 0 48 -2 55 -18
50 -14 -5 -17 0 -17 25 0 45 -35 57 -71 25z"/>
<path d="M1390 653 l-45 -46 53 43 c28 24 52 45 52 47 0 12 -22 -3 -60 -44z"/>
</g>
</svg>
